<svg width="0" height="0" class="hidden">
    <symbol id="logo" xmlns="http://www.w3.org/2000/svg" viewBox="0 0 64 64">
        <g clip-path="url(#clip0_2041_147)">
            <path fill-rule="evenodd" clip-rule="evenodd" d="M2.25 14.25C1.99139 20.5132 3.07472 26.5132 5.5 32.25C7.93725 35.176 11.0206 36.8427 14.75 37.25C12.4167 37.25 10.0833 37.25 7.75 37.25C6.85425 37.317 6.0209 37.1504 5.25 36.75C3.12312 36.2074 1.70645 34.8741 1 32.75C0.713605 29.1602 0.296938 25.6602 -0.25 22.25C-0.25 19.75 -0.25 17.25 -0.25 14.75C0.520905 14.3497 1.35424 14.183 2.25 14.25Z" fill="#5C7BE3"></path>
            <path opacity="0.954" fill-rule="evenodd" clip-rule="evenodd" d="M2.25002 14.25C4.0908 13.8627 5.34082 14.5293 6.00002 16.25C6.55992 20.4083 7.05992 24.575 7.50002 28.75C7.68712 29.2081 7.93712 29.6248 8.25002 30C12.1984 30.635 16.1984 30.9684 20.25 31C22.3768 32.7593 22.7101 34.7593 21.25 37C20.2637 37.2478 19.2637 37.3311 18.25 37.25C17.4167 37.25 16.5834 37.25 15.75 37.25C15.4167 37.25 15.0834 37.25 14.75 37.25C11.0206 36.8427 7.93727 35.176 5.50002 32.25C3.07475 26.5132 1.99141 20.5132 2.25002 14.25Z" fill="#829BF5"></path>
            <path opacity="0.948" fill-rule="evenodd" clip-rule="evenodd" d="M63.75 14.75C63.75 17.25 63.75 19.75 63.75 22.25C63.203 25.6601 62.7865 29.1601 62.5 32.75C62.196 33.5332 61.779 34.1999 61.25 34.75C60.07 33.6437 59.153 32.3103 58.5 30.75C57.841 28.5356 57.258 26.3689 56.75 24.25C56.6085 21.1606 57.025 18.1606 58 15.25C59.805 14.1148 61.7215 13.9481 63.75 14.75Z" fill="#829BF5"></path>
            <path fill-rule="evenodd" clip-rule="evenodd" d="M33.25 20.25C33.1699 21.0996 33.2532 21.933 33.5 22.75C34.3536 23.5188 35.1036 24.3521 35.75 25.25C35.25 25.25 34.75 25.25 34.25 25.25C32.5833 25.25 30.9166 25.25 29.25 25.25C24.7469 25.3332 20.2469 25.2499 15.75 25C14.6512 24.0609 14.5679 22.9776 15.5 21.75C16.0855 21.0534 16.8355 20.6368 17.75 20.5C22.914 20.2501 28.0806 20.1668 33.25 20.25Z" fill="#FEC41C"></path>
            <path opacity="0.932" fill-rule="evenodd" clip-rule="evenodd" d="M33.25 20.25C37.42 20.1668 41.5867 20.2502 45.75 20.5C47.5205 20.8544 48.5205 21.9378 48.75 23.75C48.5117 24.2388 48.1784 24.6555 47.75 25C43.7535 25.2499 39.7535 25.3332 35.75 25.25C35.1037 24.3521 34.3537 23.5188 33.5 22.75C33.2533 21.933 33.1699 21.0996 33.25 20.25Z" fill="#FEC41C" fill-opacity="0.5"></path>
            <path fill-rule="evenodd" clip-rule="evenodd" d="M56.75 24.25C57.258 26.3689 57.841 28.5356 58.5 30.75C59.153 32.3103 60.07 33.6437 61.25 34.75C60.646 36.0221 59.646 36.6887 58.25 36.75C57.479 37.1504 56.646 37.317 55.75 37.25C53.0835 37.25 50.4165 37.25 47.75 37.25C46.9166 37.25 46.0833 37.25 45.25 37.25C41.3114 37.5117 40.2281 35.8451 42 32.25C42.4166 31.8334 42.8333 31.4166 43.25 31C47.3016 30.9684 51.3015 30.635 55.25 30C56.0125 28.1547 56.5125 26.2381 56.75 24.25Z" fill="#5C7BE3"></path>
            <path opacity="0.962" fill-rule="evenodd" clip-rule="evenodd" d="M29.25 25.25C30.9167 25.25 32.5833 25.25 34.25 25.25C34.25 31.5834 34.25 37.9166 34.25 44.25C32.5833 44.25 30.9167 44.25 29.25 44.25C29.25 37.9166 29.25 31.5834 29.25 25.25Z" fill="#B1BAC9"></path>
            <path opacity="0.89" fill-rule="evenodd" clip-rule="evenodd" d="M5.25 36.75C6.0209 37.1504 6.85425 37.317 7.75 37.25C7.1514 39.0473 6.6514 40.8806 6.25 42.75C5.3934 43.3177 5.06005 44.151 5.25 45.25C4.81475 46.5561 4.48142 47.8895 4.25 49.25C3.41667 49.25 2.58333 49.25 1.75 49.25C2.81392 45.0578 3.98058 40.8911 5.25 36.75Z" fill="#B49486"></path>
            <path opacity="0.88" fill-rule="evenodd" clip-rule="evenodd" d="M15.75 37.25C16.5834 37.25 17.4166 37.25 18.25 37.25C19.4145 40.9105 20.5812 44.5772 21.75 48.25C21.1069 49.2853 20.2736 49.452 19.25 48.75C18.8376 47.5993 18.5042 46.4327 18.25 45.25C18.299 44.2235 17.9657 43.3902 17.25 42.75C16.8279 40.8947 16.3278 39.0614 15.75 37.25Z" fill="#B59486"></path>
            <path opacity="0.889" fill-rule="evenodd" clip-rule="evenodd" d="M45.25 37.25C46.0834 37.25 46.9166 37.25 47.75 37.25C47.1722 39.0614 46.6721 40.8947 46.25 42.75C45.3934 43.3177 45.06 44.151 45.25 45.25C44.9958 46.4327 44.6624 47.5993 44.25 48.75C43.2264 49.452 42.3931 49.2853 41.75 48.25C42.9188 44.5772 44.0855 40.9105 45.25 37.25Z" fill="#B49285"></path>
            <path opacity="0.864" fill-rule="evenodd" clip-rule="evenodd" d="M58.25 36.75C59.5195 40.8911 60.686 45.0578 61.75 49.25C60.9165 49.25 60.0835 49.25 59.25 49.25C59.0185 47.8895 58.6855 46.5561 58.25 45.25C58.44 44.151 58.1065 43.3177 57.25 42.75C56.8485 40.8806 56.3485 39.0473 55.75 37.25C56.646 37.317 57.479 37.1504 58.25 36.75Z" fill="#B49386"></path>
            <path opacity="0.745" fill-rule="evenodd" clip-rule="evenodd" d="M6.25002 42.75C9.91667 42.75 13.5834 42.75 17.25 42.75C17.9657 43.3902 18.299 44.2235 18.25 45.25C13.9167 45.25 9.58337 45.25 5.25002 45.25C5.06007 44.151 5.39342 43.3177 6.25002 42.75Z" fill="#B3BCCB"></path>
            <path opacity="0.745" fill-rule="evenodd" clip-rule="evenodd" d="M46.25 42.75C49.9167 42.75 53.5835 42.75 57.25 42.75C58.1065 43.3177 58.44 44.151 58.25 45.25C53.9165 45.25 49.5834 45.25 45.25 45.25C45.0601 44.151 45.3934 43.3177 46.25 42.75Z" fill="#B3BCCB"></path>
            <path opacity="0.855" fill-rule="evenodd" clip-rule="evenodd" d="M29.25 44.25C30.9166 44.25 32.5833 44.25 34.25 44.25C37.3867 43.8041 38.8034 45.1374 38.5 48.25C34 48.9166 29.5 48.9166 25 48.25C24.6965 45.1374 26.1132 43.8041 29.25 44.25Z" fill="#414B58"></path>
        </g>
        <defs>
            <clipPath id="clip0_2041_147">
                <rect width="64" height="64" fill="white"></rect>
            </clipPath>
        </defs>
    </symbol>
    <symbol id="trash" fill="none" xmlns="http://www.w3.org/2000/svg" viewBox="0 0 24 24">
        <path d="M8.37305 4.74658C8.37305 3.78008 9.15655 2.99658 10.123 2.99658L13.8671 2.99658C14.8336 2.99658 15.6171 3.78009 15.6171 4.74658V5.44312H17.4576C18.4241 5.44312 19.2076 6.22662 19.2076 7.19312V8.59869C19.2076 9.46074 18.5843 10.1772 17.7638 10.322L16.9898 19.402C16.9127 20.3076 16.1551 21.0034 15.2462 21.0034H8.79219C7.88615 21.0034 7.12993 20.3118 7.04916 19.4094L6.2359 10.3225C5.41396 10.1789 4.78918 9.46176 4.78918 8.59869V7.19312C4.78918 6.22662 5.57269 5.44312 6.53918 5.44312H8.37305V4.74658ZM8.37305 6.94322V6.94312H6.53918C6.40111 6.94312 6.28918 7.05504 6.28918 7.19312V8.59869C6.28918 8.73677 6.40111 8.84869 6.53918 8.84869L17.4576 8.84869C17.5957 8.84869 17.7076 8.73677 17.7076 8.59869V7.19312C17.7076 7.05504 17.5957 6.94312 17.4576 6.94312H15.6171V6.94322L8.37305 6.94322ZM14.1171 4.74658C14.1171 4.60851 14.0051 4.49658 13.8671 4.49658L10.123 4.49658C9.98497 4.49658 9.87305 4.60851 9.87305 4.74658V5.44312L14.1171 5.44312V4.74658ZM8.54319 19.2757C8.55473 19.4046 8.66276 19.5034 8.79219 19.5034H15.2462C15.376 19.5034 15.4842 19.404 15.4953 19.2746L16.2561 10.3488L7.74425 10.3488L8.54319 19.2757Z" fill="#5C7BE3"></path>
    </symbol>
    <symbol id="user" fill="none" xmlns="http://www.w3.org/2000/svg" viewBox="0 0 32 32">
        <path d="M0 16C0 7.16313 7.16537 0 16 0C24.8346 0 32 7.16313 32 16C32 24.8369 24.8346 32 16 32C7.16537 32 0 24.8369 0 16ZM16 2.40123C8.49067 2.40123 2.40079 8.48992 2.40079 16C2.40079 19.8171 3.974 23.267 6.5072 25.7369C7.88599 21.9098 11.5486 19.1737 15.8501 19.1737H16.0544C20.3816 19.1737 24.0623 21.9426 25.4218 25.8057C27.9966 23.3312 29.5992 19.8527 29.5992 16C29.5992 8.48992 23.5093 2.40123 16 2.40123ZM23.3918 27.416C22.6258 24.0706 19.6315 21.5749 16.0544 21.5749H15.8501C12.2924 21.5749 9.3111 24.0436 8.5253 27.3618C10.6703 28.7758 13.2392 29.5988 16 29.5988C18.7253 29.5988 21.2637 28.7968 23.3918 27.416ZM11.1778 12.7634C11.1778 10.0997 13.3374 7.94099 16 7.94099C18.6625 7.94099 20.8222 10.0997 20.8222 12.7634C20.8222 15.427 18.6625 17.5858 16 17.5858C13.3374 17.5858 11.1778 15.427 11.1778 12.7634ZM16 10.3422C14.6627 10.3422 13.5785 11.4265 13.5785 12.7634C13.5785 14.1002 14.6627 15.1845 16 15.1845C17.3372 15.1845 18.4214 14.1002 18.4214 12.7634C18.4214 11.4265 17.3372 10.3422 16 10.3422Z" fill="#414B58"></path>
    </symbol>
    <symbol id="search" fill="none" xmlns="http://www.w3.org/2000/svg" viewBox="0 0 24 24">
        <path d="M17.5 11C17.5 7.41015 14.5899 4.5 11 4.5C7.41015 4.5 4.5 7.41015 4.5 11C4.5 14.5899 7.41015 17.5 11 17.5C14.5899 17.5 17.5 14.5899 17.5 11ZM16.1018 17.1624C14.717 18.3101 12.9391 19 11 19C6.58172 19 3 15.4183 3 11C3 6.58172 6.58172 3 11 3C15.4183 3 19 6.58172 19 11C19 12.9391 18.3101 14.717 17.1624 16.1018L21.5303 20.4697C21.8232 20.7626 21.8232 21.2374 21.5303 21.5303C21.2374 21.8232 20.7626 21.8232 20.4697 21.5303L16.1018 17.1624Z" fill="#FEC41C"></path>
    </symbol>
    <symbol id="arrow-left" xmlns="http://www.w3.org/2000/svg" viewBox="0 0 24 24">
        <path d="M10.7789 7.28171C11.0726 6.98958 11.0738 6.51471 10.7817 6.22105C10.4896 5.9274 10.0147 5.92616 9.72105 6.21829L4.22105 11.6898C4.07955 11.8305 4 12.0219 4 12.2215C4 12.4211 4.07955 12.6124 4.22105 12.7532L9.72105 18.2246C10.0147 18.5168 10.4896 18.5155 10.7817 18.2219C11.0738 17.9282 11.0726 17.4534 10.7789 17.1612L6.56854 12.9727L19.25 12.9727C19.6642 12.9727 20 12.6369 20 12.2227C20 11.8084 19.6642 11.4727 19.25 11.4727L6.56614 11.4727L10.7789 7.28171Z" fill="#5C7BE3"></path>
    </symbol>
    <symbol id="plus" fill="none" xmlns="http://www.w3.org/2000/svg" viewBox="0 0 20 20">
        <path fill-rule="evenodd" clip-rule="evenodd" d="M19 9.29995H10.7V0.999951C10.7 0.599951 10.4 0.199951 9.89995 0.199951C9.39995 0.199951 9.29995 0.599951 9.29995 0.999951V9.29995H0.999951C0.599951 9.29995 0.199951 9.59995 0.199951 10.1C0.199951 10.6 0.499951 10.9 0.999951 10.9H9.29995V19C9.29995 19.4 9.59995 19.7999 10.1 19.7999C10.6 19.7999 10.9 19.5 10.9 19V10.7H19C19.4 10.7 19.7999 10.4 19.7999 9.89995C19.7999 9.39995 19.4 9.29995 19 9.29995Z" fill="white"></path>
    </symbol>
</svg>