<?xml version="1.0" encoding="UTF-8"?>
<!DOCTYPE svg PUBLIC "-//W3C//DTD SVG 1.1//EN" "http://www.w3.org/Graphics/SVG/1.1/DTD/svg11.dtd">
<svg xmlns="http://www.w3.org/2000/svg" version="1.1" width="128px" height="128px" style="shape-rendering:geometricPrecision; text-rendering:geometricPrecision; image-rendering:optimizeQuality; fill-rule:evenodd; clip-rule:evenodd" xmlns:xlink="http://www.w3.org/1999/xlink">
<g><path style="opacity:1" fill="#5d7ce4" d="M 4.5,28.5 C 3.98278,41.0264 6.14945,53.0264 11,64.5C 15.8745,70.352 22.0412,73.6853 29.5,74.5C 24.8333,74.5 20.1667,74.5 15.5,74.5C 13.7085,74.634 12.0418,74.3007 10.5,73.5C 6.24624,72.4148 3.41291,69.7482 2,65.5C 1.42721,58.3203 0.593876,51.3203 -0.5,44.5C -0.5,39.5 -0.5,34.5 -0.5,29.5C 1.04181,28.6993 2.70848,28.366 4.5,28.5 Z"/></g>
<g><path style="opacity:0.954" fill="#829af5" d="M 4.5,28.5 C 8.18156,27.7253 10.6816,29.0586 12,32.5C 13.1198,40.8166 14.1198,49.1499 15,57.5C 15.3742,58.4162 15.8742,59.2496 16.5,60C 24.3967,61.27 32.3967,61.9367 40.5,62C 44.7535,65.5186 45.4201,69.5186 42.5,74C 40.5273,74.4955 38.5273,74.6621 36.5,74.5C 34.8333,74.5 33.1667,74.5 31.5,74.5C 30.8333,74.5 30.1667,74.5 29.5,74.5C 22.0412,73.6853 15.8745,70.352 11,64.5C 6.14945,53.0264 3.98278,41.0264 4.5,28.5 Z"/></g>
<g><path style="opacity:0.948" fill="#829bf5" d="M 127.5,29.5 C 127.5,34.5 127.5,39.5 127.5,44.5C 126.406,51.3203 125.573,58.3203 125,65.5C 124.392,67.0664 123.558,68.3998 122.5,69.5C 120.14,67.2874 118.306,64.6207 117,61.5C 115.682,57.0712 114.516,52.7379 113.5,48.5C 113.217,42.3213 114.05,36.3213 116,30.5C 119.61,28.2297 123.443,27.8963 127.5,29.5 Z"/></g>
<g><path style="opacity:1" fill="#fec41c" d="M 66.5,40.5 C 66.3398,42.1992 66.5065,43.8659 67,45.5C 68.7073,47.0375 70.2073,48.7041 71.5,50.5C 70.5,50.5 69.5,50.5 68.5,50.5C 65.1667,50.5 61.8333,50.5 58.5,50.5C 49.4938,50.6664 40.4938,50.4998 31.5,50C 29.3025,48.1217 29.1358,45.9551 31,43.5C 32.1711,42.1068 33.6711,41.2735 35.5,41C 45.828,40.5002 56.1613,40.3335 66.5,40.5 Z"/></g>
<g><path style="opacity:0.932" fill="#ffe68b" d="M 66.5,40.5 C 74.84,40.3336 83.1733,40.5003 91.5,41C 95.041,41.7088 97.041,43.8755 97.5,47.5C 97.0233,48.4776 96.3567,49.3109 95.5,50C 87.5069,50.4997 79.5069,50.6664 71.5,50.5C 70.2073,48.7041 68.7073,47.0375 67,45.5C 66.5065,43.8659 66.3398,42.1992 66.5,40.5 Z"/></g>
<g><path style="opacity:1" fill="#5c7be3" d="M 113.5,48.5 C 114.516,52.7379 115.682,57.0712 117,61.5C 118.306,64.6207 120.14,67.2874 122.5,69.5C 121.292,72.0442 119.292,73.3775 116.5,73.5C 114.958,74.3007 113.292,74.634 111.5,74.5C 106.167,74.5 100.833,74.5 95.5,74.5C 93.8333,74.5 92.1667,74.5 90.5,74.5C 82.6229,75.0234 80.4562,71.6901 84,64.5C 84.8333,63.6667 85.6667,62.8333 86.5,62C 94.6033,61.9367 102.603,61.27 110.5,60C 112.025,56.3095 113.025,52.4762 113.5,48.5 Z"/></g>
<g><path style="opacity:0.962" fill="#b1bac9" d="M 58.5,50.5 C 61.8333,50.5 65.1667,50.5 68.5,50.5C 68.5,63.1667 68.5,75.8333 68.5,88.5C 65.1667,88.5 61.8333,88.5 58.5,88.5C 58.5,75.8333 58.5,63.1667 58.5,50.5 Z"/></g>
<g><path style="opacity:0.89" fill="#b49486" d="M 10.5,73.5 C 12.0418,74.3007 13.7085,74.634 15.5,74.5C 14.3028,78.0946 13.3028,81.7612 12.5,85.5C 10.7868,86.6354 10.1201,88.302 10.5,90.5C 9.6295,93.1123 8.96283,95.779 8.5,98.5C 6.83333,98.5 5.16667,98.5 3.5,98.5C 5.62783,90.1156 7.96117,81.7822 10.5,73.5 Z"/></g>
<g><path style="opacity:0.88" fill="#b59486" d="M 31.5,74.5 C 33.1667,74.5 34.8333,74.5 36.5,74.5C 38.829,81.821 41.1624,89.1543 43.5,96.5C 42.2138,98.5706 40.5471,98.9039 38.5,97.5C 37.6751,95.1987 37.0084,92.8654 36.5,90.5C 36.5979,88.4471 35.9313,86.7804 34.5,85.5C 33.6557,81.7894 32.6557,78.1228 31.5,74.5 Z"/></g>
<g><path style="opacity:0.889" fill="#b49285" d="M 90.5,74.5 C 92.1667,74.5 93.8333,74.5 95.5,74.5C 94.3443,78.1228 93.3443,81.7894 92.5,85.5C 90.7868,86.6354 90.1201,88.302 90.5,90.5C 89.9916,92.8654 89.3249,95.1987 88.5,97.5C 86.4529,98.9039 84.7862,98.5706 83.5,96.5C 85.8376,89.1543 88.171,81.821 90.5,74.5 Z"/></g>
<g><path style="opacity:0.864" fill="#b49386" d="M 116.5,73.5 C 119.039,81.7822 121.372,90.1156 123.5,98.5C 121.833,98.5 120.167,98.5 118.5,98.5C 118.037,95.779 117.371,93.1123 116.5,90.5C 116.88,88.302 116.213,86.6354 114.5,85.5C 113.697,81.7612 112.697,78.0946 111.5,74.5C 113.292,74.634 114.958,74.3007 116.5,73.5 Z"/></g>
<g><path style="opacity:0.745" fill="#b3bccb" d="M 12.5,85.5 C 19.8333,85.5 27.1667,85.5 34.5,85.5C 35.9313,86.7804 36.5979,88.4471 36.5,90.5C 27.8333,90.5 19.1667,90.5 10.5,90.5C 10.1201,88.302 10.7868,86.6354 12.5,85.5 Z"/></g>
<g><path style="opacity:0.745" fill="#b3bccb" d="M 92.5,85.5 C 99.8333,85.5 107.167,85.5 114.5,85.5C 116.213,86.6354 116.88,88.302 116.5,90.5C 107.833,90.5 99.1667,90.5 90.5,90.5C 90.1201,88.302 90.7868,86.6354 92.5,85.5 Z"/></g>
<g><path style="opacity:0.855" fill="#414b58" d="M 58.5,88.5 C 61.8333,88.5 65.1667,88.5 68.5,88.5C 74.7735,87.6083 77.6069,90.2749 77,96.5C 68,97.8333 59,97.8333 50,96.5C 49.3931,90.2749 52.2265,87.6083 58.5,88.5 Z"/></g>
</svg>
